<svg width="188" height="43" viewBox="0 0 188 43" fill="none" xmlns="http://www.w3.org/2000/svg">
<g clip-path="url(#clip0_1128_215781)">
<path d="M19.075 5.4H15.925C15.7317 5.4 15.575 5.2433 15.575 5.05V4.35C15.575 4.1567 15.7317 4 15.925 4H19.075C19.2683 4 19.425 4.1567 19.425 4.35V5.05C19.425 5.2433 19.2683 5.4 19.075 5.4Z" fill="#E9ECEF"/>
<path d="M16.7654 10.3386L16.4932 7.88865C16.4702 7.68132 16.6325 7.5 16.8411 7.5H18.159C18.3676 7.5 18.5299 7.68132 18.5068 7.88865L18.2346 10.3386C18.2149 10.5159 18.0651 10.65 17.8867 10.65H17.1133C16.9349 10.65 16.7851 10.5159 16.7654 10.3386Z" fill="#E9ECEF"/>
<path d="M16.975 15.2V13.45C16.975 13.2567 17.1317 13.1 17.325 13.1H17.675C17.8683 13.1 18.025 13.2567 18.025 13.45V15.2C18.025 15.3933 17.8683 15.55 17.675 15.55H17.325C17.1317 15.55 16.975 15.3933 16.975 15.2Z" fill="#E9ECEF"/>
<path d="M12.7939 6.0224L9.88371 7.22785C9.70513 7.30182 9.50039 7.21702 9.42641 7.03843L9.15854 6.39172C9.08456 6.21313 9.16937 6.00839 9.34795 5.93442L12.2582 4.72897C12.4368 4.655 12.6415 4.7398 12.7155 4.91839L12.9833 5.5651C13.0573 5.74369 12.9725 5.94843 12.7939 6.0224Z" fill="#E9ECEF"/>
<path d="M12.5501 11.469L11.361 9.30963C11.2604 9.1269 11.3409 8.89727 11.5337 8.81744L12.7513 8.3131C12.944 8.23327 13.1633 8.33868 13.2214 8.53905L13.9074 10.9067C13.9571 11.078 13.87 11.2592 13.7052 11.3275L12.9906 11.6235C12.8258 11.6917 12.6361 11.6252 12.5501 11.469Z" fill="#E9ECEF"/>
<path d="M14.6041 15.88L13.9344 14.2633C13.8604 14.0847 13.9452 13.8799 14.1238 13.806L14.4472 13.672C14.6257 13.5981 14.8305 13.6829 14.9045 13.8614L15.5742 15.4782C15.6481 15.6568 15.5633 15.8616 15.3847 15.9355L15.0614 16.0695C14.8828 16.1434 14.6781 16.0586 14.6041 15.88Z" fill="#E9ECEF"/>
<path d="M7.22929 9.0014L5.0019 11.2288C4.86522 11.3655 4.64361 11.3655 4.50693 11.2288L4.01195 10.7338C3.87527 10.5971 3.87527 10.3755 4.01195 10.2388L6.23934 8.01146C6.37602 7.87477 6.59763 7.87477 6.73431 8.01146L7.22929 8.50643C7.36597 8.64311 7.36597 8.86472 7.22929 9.0014Z" fill="#E9ECEF"/>
<path d="M9.08831 14.1267L7.16341 12.5868C7.00052 12.4565 6.98706 12.2135 7.13456 12.066L8.06647 11.1341C8.21398 10.9866 8.45695 11 8.58726 11.1629L10.1272 13.0878C10.2386 13.2271 10.2275 13.4278 10.1014 13.5539L9.55444 14.1009C9.42833 14.227 9.22757 14.2381 9.08831 14.1267Z" fill="#E9ECEF"/>
<path d="M12.674 17.416L11.4366 16.1785C11.2999 16.0419 11.2999 15.8202 11.4366 15.6836L11.6841 15.4361C11.8207 15.2994 12.0423 15.2994 12.179 15.4361L13.4165 16.6735C13.5532 16.8102 13.5532 17.0318 13.4165 17.1685L13.169 17.416C13.0323 17.5527 12.8107 17.5527 12.674 17.416Z" fill="#E9ECEF"/>
<path d="M3.22828 13.8832L2.02283 16.7935C1.94886 16.972 1.74412 17.0568 1.56553 16.9829L0.918817 16.715C0.740231 16.641 0.655426 16.4363 0.729398 16.2577L1.93485 13.3475C2.00882 13.1689 2.21356 13.0841 2.39215 13.1581L3.03886 13.4259C3.21745 13.4999 3.30225 13.7046 3.22828 13.8832Z" fill="#E9ECEF"/>
<path d="M6.90715 17.907L4.53948 17.2209C4.33911 17.1628 4.2337 16.9435 4.31353 16.7508L4.81787 15.5332C4.8977 15.3405 5.12733 15.2599 5.31006 15.3605L7.46939 16.5496C7.62561 16.6356 7.69216 16.8254 7.62392 16.9901L7.32792 17.7047C7.25967 17.8695 7.07845 17.9566 6.90715 17.907Z" fill="#E9ECEF"/>
<path d="M11.4787 19.5737L9.86187 18.904C9.68329 18.83 9.59848 18.6253 9.67245 18.4467L9.80639 18.1233C9.88037 17.9447 10.0851 17.8599 10.2637 17.9339L11.8805 18.6036C12.0591 18.6776 12.1439 18.8823 12.0699 19.0609L11.936 19.3843C11.862 19.5628 11.6572 19.6476 11.4787 19.5737Z" fill="#E9ECEF"/>
<path d="M1.4 19.9248L1.4 23.0748C1.4 23.2681 1.2433 23.4248 1.05 23.4248H0.35C0.1567 23.4248 0 23.2681 0 23.0748L0 19.9248C0 19.7315 0.156701 19.5748 0.35 19.5748H1.05C1.2433 19.5748 1.4 19.7315 1.4 19.9248Z" fill="#E9ECEF"/>
<path d="M6.33865 22.2344L3.88865 22.5066C3.68132 22.5297 3.5 22.3674 3.5 22.1588V20.8408C3.5 20.6322 3.68132 20.47 3.88865 20.493L6.33865 20.7652C6.5159 20.7849 6.65 20.9347 6.65 21.1131V21.8865C6.65 22.0649 6.5159 22.2147 6.33865 22.2344Z" fill="#E9ECEF"/>
<path d="M11.2 22.0248H9.45C9.2567 22.0248 9.1 21.8681 9.1 21.6748V21.3248C9.1 21.1315 9.2567 20.9748 9.45 20.9748H11.2C11.3933 20.9748 11.55 21.1315 11.55 21.3248V21.6748C11.55 21.8681 11.3933 22.0248 11.2 22.0248Z" fill="#E9ECEF"/>
<path d="M2.02283 26.2063L3.22828 29.1165C3.30225 29.2951 3.21744 29.4998 3.03886 29.5738L2.39214 29.8416C2.21356 29.9156 2.00882 29.8308 1.93485 29.6522L0.729395 26.742C0.655423 26.5634 0.740229 26.3587 0.918814 26.2847L1.56553 26.0168C1.74411 25.9429 1.94885 26.0277 2.02283 26.2063Z" fill="#E9ECEF"/>
<path d="M7.46938 26.4501L5.31006 27.6392C5.12733 27.7398 4.8977 27.6592 4.81787 27.4665L4.31353 26.2489C4.2337 26.0562 4.33911 25.8369 4.53947 25.7788L6.90715 25.0927C7.07845 25.0431 7.25967 25.1302 7.32792 25.295L7.62391 26.0096C7.69216 26.1743 7.62561 26.3641 7.46938 26.4501Z" fill="#E9ECEF"/>
<path d="M11.8805 24.3961L10.2637 25.0658C10.0851 25.1398 9.88036 25.055 9.80639 24.8764L9.67245 24.553C9.59848 24.3744 9.68328 24.1697 9.86187 24.0957L11.4787 23.426C11.6572 23.3521 11.862 23.4369 11.936 23.6154L12.0699 23.9388C12.1439 24.1174 12.0591 24.3221 11.8805 24.3961Z" fill="#E9ECEF"/>
<path d="M5.00189 31.7705L7.22928 33.9979C7.36596 34.1346 7.36596 34.3562 7.22928 34.4929L6.7343 34.9879C6.59762 35.1245 6.37601 35.1245 6.23933 34.9879L4.01194 32.7605C3.87526 32.6238 3.87526 32.4022 4.01194 32.2655L4.50692 31.7705C4.6436 31.6338 4.86521 31.6338 5.00189 31.7705Z" fill="#E9ECEF"/>
<path d="M10.1272 29.9115L8.58725 31.8364C8.45694 31.9993 8.21397 32.0128 8.06646 31.8653L7.13456 30.9333C6.98705 30.7858 7.00051 30.5429 7.1634 30.4126L9.0883 28.8726C9.22756 28.7612 9.42832 28.7723 9.55443 28.8985L10.1014 29.4454C10.2275 29.5715 10.2386 29.7722 10.1272 29.9115Z" fill="#E9ECEF"/>
<path d="M13.4165 26.3258L12.179 27.5632C12.0423 27.6999 11.8207 27.6999 11.684 27.5632L11.4366 27.3158C11.2999 27.1791 11.2999 26.9575 11.4366 26.8208L12.674 25.5833C12.8107 25.4467 13.0323 25.4467 13.169 25.5833L13.4165 25.8308C13.5531 25.9675 13.5531 26.1891 13.4165 26.3258Z" fill="#E9ECEF"/>
<path d="M9.88366 35.7715L12.7939 36.9769C12.9725 37.0509 13.0573 37.2556 12.9833 37.4342L12.7154 38.0809C12.6414 38.2595 12.4367 38.3443 12.2581 38.2704L9.34791 37.0649C9.16932 36.9909 9.08451 36.7862 9.15849 36.6076L9.42637 35.9609C9.50034 35.7823 9.70508 35.6975 9.88366 35.7715Z" fill="#E9ECEF"/>
<path d="M13.9074 32.0926L13.2213 34.4603C13.1633 34.6606 12.9439 34.7661 12.7512 34.6862L11.5336 34.1819C11.3409 34.1021 11.2603 33.8724 11.361 33.6897L12.55 31.5304C12.6361 31.3741 12.8258 31.3076 12.9906 31.3758L13.7052 31.6718C13.8699 31.7401 13.957 31.9213 13.9074 32.0926Z" fill="#E9ECEF"/>
<path d="M15.5741 27.5211L14.9044 29.1379C14.8304 29.3165 14.6257 29.4013 14.4471 29.3273L14.1238 29.1934C13.9452 29.1194 13.8604 28.9147 13.9343 28.7361L14.604 27.1193C14.678 26.9407 14.8827 26.8559 15.0613 26.9299L15.3847 27.0638C15.5633 27.1378 15.6481 27.3425 15.5741 27.5211Z" fill="#E9ECEF"/>
<path d="M15.925 37.6H19.075C19.2683 37.6 19.425 37.7567 19.425 37.95V38.65C19.425 38.8433 19.2683 39 19.075 39H15.925C15.7317 39 15.575 38.8433 15.575 38.65V37.95C15.575 37.7567 15.7317 37.6 15.925 37.6Z" fill="#E9ECEF"/>
<path d="M18.2346 32.6614L18.5068 35.1114C18.5298 35.3187 18.3675 35.5 18.1589 35.5H16.841C16.6324 35.5 16.4701 35.3187 16.4932 35.1114L16.7654 32.6614C16.7851 32.4841 16.9349 32.35 17.1133 32.35H17.8867C18.0651 32.35 18.2149 32.4841 18.2346 32.6614Z" fill="#E9ECEF"/>
<path d="M18.025 27.8V29.55C18.025 29.7433 17.8683 29.9 17.675 29.9H17.325C17.1317 29.9 16.975 29.7433 16.975 29.55V27.8C16.975 27.6067 17.1317 27.45 17.325 27.45H17.675C17.8683 27.45 18.025 27.6067 18.025 27.8Z" fill="#E9ECEF"/>
<path d="M22.2061 36.9776L25.1163 35.7721C25.2949 35.6982 25.4996 35.783 25.5736 35.9616L25.8415 36.6083C25.9154 36.7869 25.8306 36.9916 25.652 37.0656L22.7418 38.271C22.5632 38.345 22.3585 38.2602 22.2845 38.0816L22.0167 37.4349C21.9427 37.2563 22.0275 37.0516 22.2061 36.9776Z" fill="#E9ECEF"/>
<path d="M22.4499 31.531L23.639 33.6904C23.7396 33.8731 23.6591 34.1027 23.4663 34.1826L22.2487 34.6869C22.056 34.7667 21.8367 34.6613 21.7786 34.461L21.0926 32.0933C21.0429 31.922 21.13 31.7408 21.2948 31.6725L22.0094 31.3765C22.1742 31.3083 22.3639 31.3748 22.4499 31.531Z" fill="#E9ECEF"/>
<path d="M20.3959 27.12L21.0656 28.7367C21.1396 28.9153 21.0548 29.1201 20.8762 29.194L20.5528 29.328C20.3743 29.4019 20.1695 29.3171 20.0955 29.1386L19.4258 27.5218C19.3519 27.3432 19.4367 27.1384 19.6153 27.0645L19.9386 26.9305C20.1172 26.8566 20.3219 26.9414 20.3959 27.12Z" fill="#E9ECEF"/>
<path d="M27.7707 33.9986L29.9981 31.7712C30.1348 31.6345 30.3564 31.6345 30.4931 31.7712L30.988 32.2662C31.1247 32.4029 31.1247 32.6245 30.988 32.7612L28.7607 34.9885C28.624 35.1252 28.4024 35.1252 28.2657 34.9885L27.7707 34.4936C27.634 34.3569 27.634 34.1353 27.7707 33.9986Z" fill="#E9ECEF"/>
<path d="M25.9117 28.8733L27.8366 30.4132C27.9995 30.5435 28.0129 30.7865 27.8654 30.934L26.9335 31.8659C26.786 32.0134 26.5431 32 26.4127 31.8371L24.8728 29.9122C24.7614 29.7729 24.7725 29.5722 24.8986 29.4461L25.4456 28.8991C25.5717 28.773 25.7724 28.7619 25.9117 28.8733Z" fill="#E9ECEF"/>
<path d="M22.326 25.584L23.5634 26.8215C23.7001 26.9581 23.7001 27.1798 23.5634 27.3164L23.3159 27.5639C23.1793 27.7006 22.9577 27.7006 22.821 27.5639L21.5835 26.3265C21.4468 26.1898 21.4468 25.9682 21.5835 25.8315L21.831 25.584C21.9677 25.4473 22.1893 25.4473 22.326 25.584Z" fill="#E9ECEF"/>
<path d="M31.7717 29.1158L32.9772 26.2056C33.0511 26.027 33.2559 25.9422 33.4345 26.0162L34.0812 26.284C34.2598 26.358 34.3446 26.5627 34.2706 26.7413L33.0651 29.6515C32.9912 29.8301 32.7864 29.9149 32.6079 29.841L31.9611 29.5731C31.7826 29.4991 31.6977 29.2944 31.7717 29.1158Z" fill="#E9ECEF"/>
<path d="M28.0928 25.0921L30.4605 25.7781C30.6609 25.8362 30.7663 26.0555 30.6865 26.2482L30.1821 27.4658C30.1023 27.6586 29.8727 27.7391 29.6899 27.6385L27.5306 26.4494C27.3744 26.3634 27.3078 26.1737 27.3761 26.0089L27.6721 25.2943C27.7403 25.1295 27.9216 25.0424 28.0928 25.0921Z" fill="#E9ECEF"/>
<path d="M23.5213 23.4253L25.1381 24.095C25.3167 24.169 25.4015 24.3738 25.3275 24.5523L25.1936 24.8757C25.1196 25.0543 24.9149 25.1391 24.7363 25.0651L23.1195 24.3954C22.9409 24.3214 22.8561 24.1167 22.9301 23.9381L23.064 23.6148C23.138 23.4362 23.3428 23.3514 23.5213 23.4253Z" fill="#E9ECEF"/>
<path d="M33.6 23.0752V19.9252C33.6 19.7319 33.7567 19.5752 33.95 19.5752H34.65C34.8433 19.5752 35 19.7319 35 19.9252V23.0752C35 23.2685 34.8433 23.4252 34.65 23.4252H33.95C33.7567 23.4252 33.6 23.2685 33.6 23.0752Z" fill="#E9ECEF"/>
<path d="M28.6614 20.7656L31.1114 20.4934C31.3187 20.4703 31.5 20.6326 31.5 20.8412V22.1592C31.5 22.3678 31.3187 22.53 31.1114 22.507L28.6614 22.2348C28.4841 22.2151 28.35 22.0653 28.35 21.8869V21.1135C28.35 20.9351 28.4841 20.7853 28.6614 20.7656Z" fill="#E9ECEF"/>
<path d="M23.8 20.9752H25.55C25.7433 20.9752 25.9 21.1319 25.9 21.3252V21.6752C25.9 21.8685 25.7433 22.0252 25.55 22.0252H23.8C23.6067 22.0252 23.45 21.8685 23.45 21.6752V21.3252C23.45 21.1319 23.6067 20.9752 23.8 20.9752Z" fill="#E9ECEF"/>
<path d="M32.9772 16.7937L31.7717 13.8835C31.6977 13.7049 31.7826 13.5002 31.9611 13.4262L32.6079 13.1584C32.7864 13.0844 32.9912 13.1692 33.0652 13.3478L34.2706 16.258C34.3446 16.4366 34.2598 16.6413 34.0812 16.7153L33.4345 16.9832C33.2559 17.0571 33.0511 16.9723 32.9772 16.7937Z" fill="#E9ECEF"/>
<path d="M27.5306 16.5499L29.6899 15.3608C29.8727 15.2602 30.1023 15.3408 30.1821 15.5335L30.6865 16.7511C30.7663 16.9438 30.6609 17.1631 30.4605 17.2212L28.0928 17.9073C27.9216 17.9569 27.7403 17.8698 27.6721 17.705L27.3761 16.9904C27.3078 16.8257 27.3744 16.6359 27.5306 16.5499Z" fill="#E9ECEF"/>
<path d="M23.1195 18.6039L24.7363 17.9342C24.9149 17.8602 25.1196 17.945 25.1936 18.1236L25.3275 18.447C25.4015 18.6256 25.3167 18.8303 25.1381 18.9043L23.5213 19.574C23.3428 19.6479 23.138 19.5631 23.064 19.3846L22.9301 19.0612C22.8561 18.8826 22.9409 18.6779 23.1195 18.6039Z" fill="#E9ECEF"/>
<path d="M29.9981 11.2295L27.7707 9.00208C27.634 8.8654 27.634 8.64379 27.7707 8.50711L28.2657 8.01214C28.4024 7.87545 28.624 7.87545 28.7607 8.01214L30.9881 10.2395C31.1247 10.3762 31.1247 10.5978 30.9881 10.7345L30.4931 11.2295C30.3564 11.3662 30.1348 11.3662 29.9981 11.2295Z" fill="#E9ECEF"/>
<path d="M24.8728 13.0885L26.4127 11.1636C26.5431 11.0007 26.786 10.9872 26.9335 11.1347L27.8654 12.0667C28.0129 12.2142 27.9995 12.4571 27.8366 12.5874L25.9117 14.1274C25.7724 14.2388 25.5717 14.2277 25.4456 14.1015L24.8986 13.5546C24.7725 13.4285 24.7614 13.2278 24.8728 13.0885Z" fill="#E9ECEF"/>
<path d="M21.5835 16.6742L22.821 15.4368C22.9577 15.3001 23.1793 15.3001 23.316 15.4368L23.5634 15.6842C23.7001 15.8209 23.7001 16.0425 23.5634 16.1792L22.326 17.4167C22.1893 17.5533 21.9677 17.5533 21.831 17.4167L21.5835 17.1692C21.4469 17.0325 21.4469 16.8109 21.5835 16.6742Z" fill="#E9ECEF"/>
<path d="M25.1163 7.22853L22.2061 6.02307C22.0275 5.9491 21.9427 5.74436 22.0166 5.56578L22.2845 4.91906C22.3585 4.74048 22.5632 4.65567 22.7418 4.72964L25.652 5.93509C25.8306 6.00907 25.9154 6.21381 25.8415 6.39239L25.5736 7.03911C25.4996 7.21769 25.2949 7.3025 25.1163 7.22853Z" fill="#E9ECEF"/>
<path d="M21.0926 10.9074L21.7786 8.53972C21.8367 8.33936 22.056 8.23394 22.2487 8.31377L23.4663 8.81812C23.6591 8.89795 23.7396 9.12757 23.639 9.3103L22.4499 11.4696C22.3639 11.6259 22.1741 11.6924 22.0094 11.6242L21.2948 11.3282C21.13 11.2599 21.0429 11.0787 21.0926 10.9074Z" fill="#E9ECEF"/>
<path d="M19.4258 15.4789L20.0955 13.8621C20.1695 13.6835 20.3742 13.5987 20.5528 13.6727L20.8762 13.8066C21.0548 13.8806 21.1396 14.0853 21.0656 14.2639L20.3959 15.8807C20.3219 16.0593 20.1172 16.1441 19.9386 16.0701L19.6153 15.9362C19.4367 15.8622 19.3519 15.6575 19.4258 15.4789Z" fill="#E9ECEF"/>
<path d="M58.1319 33.354C56.4583 33.354 54.9026 33.0644 53.465 32.485C52.0488 31.8842 50.7935 31.0581 49.6992 30.0067C48.6263 28.9338 47.7895 27.7 47.1887 26.3053C46.6093 24.8891 46.3196 23.3656 46.3196 21.7349C46.3196 20.1041 46.6093 18.5913 47.1887 17.1966C47.7895 15.7804 48.6263 14.5466 49.6992 13.4952C50.7935 12.4223 52.0595 11.5962 53.4971 11.0169C54.9348 10.4161 56.4797 10.1157 58.1319 10.1157C59.3121 10.1157 60.4601 10.2766 61.5759 10.5984C62.7131 10.8989 63.7538 11.3387 64.6979 11.9181C65.6635 12.4974 66.5003 13.1948 67.2084 14.0102L64.9554 16.3276C64.1186 15.3191 63.0993 14.5573 61.8977 14.0424C60.6961 13.5059 59.4408 13.2377 58.1319 13.2377C56.9303 13.2377 55.8145 13.4523 54.7846 13.8814C53.7761 14.3106 52.8963 14.9114 52.1453 15.6839C51.3943 16.4349 50.8042 17.3254 50.3751 18.3553C49.9674 19.3853 49.7635 20.5118 49.7635 21.7349C49.7635 22.9365 49.9674 24.0523 50.3751 25.0822C50.8042 26.1122 51.405 27.0134 52.1775 27.7858C52.95 28.5583 53.8512 29.1591 54.8811 29.5883C55.9111 30.0174 57.0269 30.232 58.2285 30.232C59.5374 30.232 60.7712 29.9745 61.9299 29.4595C63.1101 28.9231 64.1078 28.1721 64.9232 27.2065L67.1441 29.4595C66.3931 30.2534 65.5348 30.9508 64.5692 31.5516C63.625 32.131 62.5951 32.5816 61.4793 32.9034C60.385 33.2038 59.2692 33.354 58.1319 33.354ZM73.0253 33V10.4697H83.2283C84.7304 10.4697 86.0393 10.7486 87.155 11.3065C88.2923 11.8644 89.172 12.6476 89.7943 13.6561C90.438 14.6432 90.7599 15.8019 90.7599 17.1322C90.7599 18.6128 90.3415 19.8895 89.5046 20.9624C88.6678 22.0353 87.5413 22.8077 86.1251 23.2798L91.1461 33H87.4125L82.7455 23.7626H76.4049V33H73.0253ZM76.4049 20.9302H82.9708C84.3012 20.9302 85.3633 20.5976 86.1573 19.9324C86.9727 19.2458 87.3803 18.3231 87.3803 17.1644C87.3803 16.0486 86.9727 15.1474 86.1573 14.4608C85.3633 13.7741 84.3012 13.4308 82.9708 13.4308H76.4049V20.9302ZM96.8167 33V10.4697H113.425V13.4308H100.196V20.1899H108.886V23.0545H100.196V30.0389H113.553V33H96.8167ZM122.982 29.9745H127.617C128.797 29.9745 129.891 29.7707 130.9 29.363C131.908 28.9338 132.788 28.3545 133.539 27.6249C134.311 26.8739 134.901 26.0049 135.309 25.0178C135.738 24.0093 135.953 22.915 135.953 21.7349C135.953 20.5762 135.738 19.4926 135.309 18.4841C134.901 17.4756 134.311 16.6065 133.539 15.877C132.788 15.126 131.908 14.5466 130.9 14.1389C129.891 13.7098 128.797 13.4952 127.617 13.4952H122.982V29.9745ZM119.602 33V10.4697H127.552C129.247 10.4697 130.814 10.7594 132.251 11.3387C133.689 11.8966 134.944 12.6798 136.017 13.6883C137.09 14.6968 137.927 15.8877 138.528 17.261C139.128 18.6343 139.429 20.1255 139.429 21.7349C139.429 23.3656 139.128 24.8676 138.528 26.2409C137.948 27.5927 137.122 28.7729 136.049 29.7814C134.976 30.7899 133.71 31.5838 132.251 32.1632C130.814 32.7211 129.247 33 127.552 33H119.602ZM142.146 33L151.448 10.4697H155.439L164.644 33H160.975L158.368 26.4018H148.294L145.655 33H142.146ZM149.388 23.6016H157.274L153.347 13.6883L149.388 23.6016ZM169.542 33V10.4697H172.922V30.0067H185.893V33H169.542Z" fill="#E9ECEF"/>
</g>
<defs>
<clipPath id="clip0_1128_215781">
<rect width="188" height="43" fill="white"/>
</clipPath>
</defs>
</svg>
